<svg width="64" height="64" viewBox="0 0 64 64" fill="none" xmlns="http://www.w3.org/2000/svg">
<path d="M62.4659 40.2051L54.3472 30.234V27.5413V26.0596V12.6762C54.3472 11.8068 53.9511 10.9893 53.2341 10.376L42.2384 0.951745C41.5214 0.337367 40.5666 0 39.5555 0H6.46374C2.8989 0 0 2.48541 0 5.53944V55.4909C0 58.5448 2.89906 61.0303 6.46374 61.0303H30.6959H36.7368C37.0261 61.3614 37.3323 61.6821 37.6847 61.9695C39.2108 63.2201 41.2664 64 43.5411 64C47.6381 64 43.3514 64 48.768 64C51.0399 64 53.1005 63.2202 54.6268 61.9695C56.4054 60.5149 57.2656 58.603 57.2656 56.7174V51.4953C59.7322 51.0497 61.8462 49.6877 63.0321 47.7395C64.5018 45.3261 64.2858 42.4386 62.4659 40.2051ZM20.5336 54.082H7.95822V6.94835H34.681V13.0429C34.681 15.214 36.7416 16.9808 39.2761 16.9808H46.3887V25.6336H46.3499V25.6387C43.6599 25.5846 40.9456 26.5884 39.2108 28.6969L29.843 40.2049C28.023 42.4385 27.8067 45.3259 29.2768 47.7395C30.4625 49.6877 32.5764 51.0497 35.0433 51.4953V54.0818H33.4781H20.5336V54.082ZM57.0735 45.0741C56.7647 45.578 56.1624 45.8916 55.5011 45.8916H55.4987H50.5437V56.7175C50.5437 57.5567 49.7468 58.2378 48.7703 58.2378H48.7677H43.5409H43.5383C42.5613 58.2378 41.7644 57.5567 41.7644 56.7175V45.8916H36.8096H36.8072C36.1461 45.8916 35.5434 45.578 35.235 45.0741C34.9289 44.5701 34.9726 43.9673 35.3541 43.5007L44.6973 32.0208C45.0302 31.6137 45.5748 31.3711 46.1529 31.3711H46.1555C46.7338 31.3711 47.2781 31.6137 47.6109 32.0208L56.9545 43.5007C57.3357 43.9672 57.3795 44.5701 57.0735 45.0741Z" fill="#D9D9D9"/>
</svg>
